<svg xmlns="http://www.w3.org/2000/svg" width="400" height="400" viewBox="0 0 400 400"> <rect width="400" height="400" fill="#ffffff"/> <g transform="translate(200,158)"> <ellipse cx="-40" cy="0" rx="40" ry="27" transform="rotate(-18 -40 0)" fill="#CBA17A"/> <ellipse cx="40" cy="0" rx="40" ry="27" transform="rotate(18 40 0)" fill="#CBA17A"/> <path d="M-12,6 L-34,74 L-7,56 Z" fill="#BD8E64"/> <path d="M12,6 L34,74 L7,56 Z" fill="#BD8E64"/> <circle cx="0" cy="-2" r="15" fill="#B5855B"/> </g> <text x="200" y="262" text-anchor="middle" font-family="Georgia, 'Frank Ruhl Libre', serif" font-size="54" font-weight="700" letter-spacing="7" fill="#3a3330">MINOLA</text> <text x="200" y="300" text-anchor="middle" font-family="Georgia, serif" font-size="21" letter-spacing="1" fill="#CBA17A">מתנות בעיצוב אישי</text> <path d="M200,338 c-9,-13 -30,-7 -30,8 c0,13 30,28 30,28 c0,0 30,-15 30,-28 c0,-15 -21,-21 -30,-8 z" fill="none" stroke="#CBA17A" stroke-width="3"/> </svg>